<svg width="32" height="32" viewBox="0 0 32 32" fill="none" xmlns="http://www.w3.org/2000/svg">
  <rect width="32" height="32" rx="6" fill="#172039"/>
  <path d="M8 12C8 10.8954 8.89543 10 10 10H12C13.1046 10 14 10.8954 14 12V20C14 21.1046 13.1046 22 12 22H10C8.89543 22 8 21.1046 8 20V12Z" fill="#29CA8D"/>
  <path d="M18 12C18 10.8954 18.8954 10 20 10H22C23.1046 10 24 10.8954 24 12V20C24 21.1046 23.1046 22 22 22H20C18.8954 22 18 21.1046 18 20V12Z" fill="#F97316"/>
  <circle cx="11" cy="8" r="2" fill="#29CA8D"/>
  <circle cx="21" cy="8" r="2" fill="#F97316"/>
</svg>
